<svg xmlns="http://www.w3.org/2000/svg" viewBox="0 0 190 199.55"><defs><style>.cls-1{fill:#8a2f2e;}</style></defs><title>Asset 2</title><g id="Layer_2" data-name="Layer 2"><g id="Layer_1-2" data-name="Layer 1"><g id="Logo_with_cutout" data-name="Logo with cutout"><path class="cls-1" d="M162.89,33.51c-4.65,32.89-13.55,66.51-23.54,72.81a4.38,4.38,0,0,1-4.69,0c-9.53-6-18.06-36.84-22.86-68.21A52.67,52.67,0,0,0,97.22,53.05a2.63,2.63,0,0,1-4.44,0C88,45.52,74.83,29.76,49,29,15,28,0,58.9,0,79c0,17.5,3,40.2,33,75,20,23.21,39.66,36.31,51.3,42.78a22,22,0,0,0,21.41,0C117.34,190.31,137,177.21,157,154c30-34.8,33-57.5,33-75C190,63.9,181.53,42.7,162.89,33.51ZM94.62,111.84q1.62-5.9,2.15-7.15a5.62,5.62,0,0,1,1.38-1.85,2.57,2.57,0,0,1,1.59-.81q2,0,4,2.83a34.33,34.33,0,0,1,3.39,5.67,20.19,20.19,0,0,0,1.43,2.83q.27,0,1.3-2t1.88-3.9a63.2,63.2,0,0,0,3.13-9.1,11.5,11.5,0,0,1,.85-2.5,1.46,1.46,0,0,1,1.8,0,2.79,2.79,0,0,1,.32,1.72,15,15,0,0,1-.58,4.16,55.79,55.79,0,0,1-3.13,8.45,21.34,21.34,0,0,1-3.4,5.75,4.47,4.47,0,0,1-1.09.86,3,3,0,0,1-1.19.18,2.86,2.86,0,0,1-1.75-.42q-.58-.41-2.92-5-3-6-3.71-6a.31.31,0,0,0-.27.16q-.48.68-2.18,7.12-.9,3.33-1.33,4.42a6.9,6.9,0,0,1-1.17,2q-.8,1-1.22,1t-.66-.55a2.55,2.55,0,0,1-.29-1.22A56.78,56.78,0,0,1,94.62,111.84ZM68.48,121.95q1-10.88,1.23-12.43a8,8,0,0,1,.46-1.75,1.15,1.15,0,0,1,.66-.6,1.12,1.12,0,0,1,.89.12,1.2,1.2,0,0,1,.62.69,39.45,39.45,0,0,1-.11,6.69q-.34,6-.8,9-.16.92-.4,2.82a21.73,21.73,0,0,1-1.55,6.1,2.23,2.23,0,0,1-1.25,1.4q-.46.15-.57.08c-.07,0-.12-.23-.15-.54S67.82,129.2,68.48,121.95ZM48.72,110.79a6.54,6.54,0,0,1-3.4,2.6,8.4,8.4,0,0,1-5.77-.17,9.41,9.41,0,0,1-4.05-3.06Q34.6,109,34.44,109a6.5,6.5,0,0,0-.51,2.46,12.07,12.07,0,0,1-.77,2.91q-.53,1.27-1,1.42-1.17.37-1.84-1.71l-.14-.44q-.69-3.1,2.12-11.23a20.93,20.93,0,0,1,1.5-3.68,5,5,0,0,1,1.93-1.57A12.87,12.87,0,0,1,38,96.14,5.25,5.25,0,0,1,39.9,96q2.28.16,5.28,2.77a14.19,14.19,0,0,1,4.41,6.12A6.36,6.36,0,0,1,48.72,110.79Zm7.67.5q-.29-1.56,2.85-15.56a34.59,34.59,0,0,1,1.31-5,2,2,0,0,1,1.31-1,2.14,2.14,0,0,1,1,0,2.1,2.1,0,0,1,1.23.81q.66,1.05-1.94,12.67-1.9,8.47-2.72,9.3-1,1-1.71.79Q56.68,113.12,56.39,111.3ZM80,165.66a3.61,3.61,0,0,1-1.55.54,18.24,18.24,0,0,1-8-1,24.4,24.4,0,0,0-3.11-.75,1.19,1.19,0,0,0-.37,0q-.36.05-.6,1.3A24.53,24.53,0,0,0,66,169.1q-.32,3.88-2,4.13a1.28,1.28,0,0,1-1.37-.74,5,5,0,0,1-.6-1.59,15,15,0,0,1,0-2.74q.42-7.16,3.51-7.61,1.59-.23,5.67,1a21.43,21.43,0,0,0,5.46,1l1.57-.07-.32-1.11a10,10,0,0,0-2.78-4.27,11.58,11.58,0,0,0-4.42-2.92,10.43,10.43,0,0,0-4.84-.39,10.66,10.66,0,0,0-4.86,2,5.89,5.89,0,0,1-1.89,1.07,1,1,0,0,1-.77-.25A1.18,1.18,0,0,1,58,156q-.16-1.08,1.32-2.61A10.13,10.13,0,0,1,62.88,151a14.81,14.81,0,0,1,2.93-.8A13.33,13.33,0,0,1,76,153.07a16.32,16.32,0,0,1,3.84,4.11,11.56,11.56,0,0,1,2,4.6,4.76,4.76,0,0,1,.07.83A3.7,3.7,0,0,1,80,165.66Zm7-64.2a13.32,13.32,0,0,1-.87,5.2,12.36,12.36,0,0,1-2.43,3.64,3.89,3.89,0,0,1-2.62,1.35q-.62,0-.62-.57a4.89,4.89,0,0,1,.81-2.08,15.21,15.21,0,0,0,2-7.38v-.83a15.38,15.38,0,0,0-.19-2,2.19,2.19,0,0,0-.41-1,1,1,0,0,0-.84-.34,6.7,6.7,0,0,0-1.12.21A19.5,19.5,0,0,0,74.64,101a5.32,5.32,0,0,1-2.62,1.3,1.24,1.24,0,0,1-.81-.31.85.85,0,0,1-.37-.62q0-.73,1.93-2.39,5.37-4.57,9.3-4.58a4.61,4.61,0,0,1,4.24,2.5,6.84,6.84,0,0,1,.75,3.43ZM105,140.58q-1.24-1.28-1.24-1.79c0-.24-.39-.37-1.17-.37a2,2,0,0,0-1.68,1,6.06,6.06,0,0,0-.44,2.71q0,1.83.22,7.31c.29,5.07.44,4.19.44,7.36q0,7.75-4.24,12.29a5.59,5.59,0,0,1-4.17,2.27,5.27,5.27,0,0,1-3.07-1.1q-2.49-1.76-2.49-6.66a16.89,16.89,0,0,1,2.34-8.77q1.76-2.85,4.1-2.85h.66l1.76.07-.15-3.92q-.07-2.19-.07-5.19a13.62,13.62,0,0,1,.8-5.48,6.13,6.13,0,0,1,1.54-2.12,8.29,8.29,0,0,1,2.56-1.32,7.87,7.87,0,0,1,2.49-.44,5,5,0,0,1,3.8,1.54,5.8,5.8,0,0,1,1.46,4.17,3.25,3.25,0,0,1-.48,1.87,1.42,1.42,0,0,1-1.21.69Q106.24,141.86,105,140.58Zm24.42,22.71a3.7,3.7,0,0,1-2.24,2.76,3.61,3.61,0,0,1-1.61.31,18.24,18.24,0,0,1-7.75-2.18,24.4,24.4,0,0,0-3-1.2,1.19,1.19,0,0,0-.36-.05q-.36,0-.78,1.2a24.53,24.53,0,0,0-.94,3.28q-.88,3.8-2.55,3.8a1.28,1.28,0,0,1-1.25-.94,5,5,0,0,1-.36-1.66,15,15,0,0,1,.42-2.7q1.45-7,4.58-7,1.61,0,5.46,1.82a21.43,21.43,0,0,0,5.25,1.82l1.56.16-.16-1.14a10,10,0,0,0-2.13-4.63,11.58,11.58,0,0,0-4-3.54,10.43,10.43,0,0,0-4.73-1.09,10.66,10.66,0,0,0-5.1,1.25,5.89,5.89,0,0,1-2,.78,1,1,0,0,1-.73-.36,1.18,1.18,0,0,1-.26-.68q0-1.09,1.69-2.39a10.13,10.13,0,0,1,3.87-1.82,14.81,14.81,0,0,1,3-.36A13.33,13.33,0,0,1,125,153a16.32,16.32,0,0,1,3.2,4.63,11.56,11.56,0,0,1,1.27,4.84A4.76,4.76,0,0,1,129.41,163.29Z"/><path class="cls-1" d="M95.85,156.46a1.94,1.94,0,0,1-.88-.22.55.55,0,0,1-.22-.07q-1.1,0-2.12,3.07a15.69,15.69,0,0,0-.73,5,3.42,3.42,0,0,0,.37,2,.29.29,0,0,0,.22.07q.58,0,1.57-1.46a11.64,11.64,0,0,0,1.5-3.15,15.71,15.71,0,0,0,.59-4C96.15,156.88,96,156.46,95.85,156.46Z"/><path class="cls-1" d="M43.6,102.89a13.21,13.21,0,0,0-3.28-3q-1.1-.68-1.57-.53a3,3,0,0,0-1.38,1.1,3.92,3.92,0,0,0-.83,1.71,5,5,0,0,0,.24,2.61,9.79,9.79,0,0,0,2.94,4.44,6.29,6.29,0,0,0,2.07,1.25,3.26,3.26,0,0,0,1.94-.08,3,3,0,0,0,1.61-1.2,3.12,3.12,0,0,0,.57-1.89,3.88,3.88,0,0,0-.19-.77A11.64,11.64,0,0,0,43.6,102.89Z"/><path class="cls-1" d="M149.89,4.09a22.35,22.35,0,0,0-25.78,0c-6.17,4.36-11.81,12.85-9.64,29.34,4,30.63,11.78,63.07,20.49,68.93a3.6,3.6,0,0,0,4.07,0c8.72-5.86,16.47-38.3,20.49-68.93C161.69,16.93,156.06,8.45,149.89,4.09ZM137,38.5A13.5,13.5,0,1,1,150.5,25,13.5,13.5,0,0,1,137,38.5Z"/><path class="cls-1" d="M149.72,29.5a13.49,13.49,0,0,1-24.49,2.11,51.59,51.59,0,0,0-10.39,4.58C119,66,126.51,96.68,135,102.37a3.6,3.6,0,0,0,4.07,0c8.72-5.86,16.47-38.3,20.49-68.93.06-.46.09-.88.14-1.33A44.59,44.59,0,0,0,149.72,29.5Z"/></g></g></g></svg>